{
  "source": "C:\\Users\\Peter\\Desktop\\stuff\\MIUN\\quantitative_research\\video_compression\\videos\\UVG\\ShakeNDry_1920x1080_120fps_420_8bit_YUV.y4m",
  "output": "C:\\Users\\Peter\\Desktop\\stuff\\MIUN\\quantitative_research\\video_compression\\compressed_videos\\UVG\\h264\\2.5\\ShakeNDry_1920x1080_120fps_420_8bit_YUV_h264.mp4",
  "codec": "h264",
  "ok": "[yuv4mpegpipe @ 0000012603cb5ec0] Stream #0: not enough frames to estimate rate; consider increasing probesize\nInput #0, yuv4mpegpipe, from 'C:\\Users\\Peter\\Desktop\\stuff\\MIUN\\quantitative_research\\video_compression\\videos\\UVG\\ShakeNDry_1920x1080_120fps_420_8bit_YUV.y4m':\n  Duration: 00:00:02.50, start: 0.000000, bitrate: 2985989 kb/s\n  Stream #0:0: Video: rawvideo (I420 / 0x30323449), yuv420p(progressive), 1920x1080, 120 fps, 120 tbr, 120 tbn\n[out#0/mp4 @ 0000012603cb9ac0] Codec AVOption b:a (set bitrate (in bits/s)) has not been used for any stream. The most likely reason is either wrong type (e.g. a video option with no video streams) or that it is a private option of some decoder which was not actually used for any stream.\nStream mapping:\n  Stream #0:0 -> #0:0 (rawvideo (native) -> h264 (libx264))\nPress [q] to stop, [?] for help\n[libx264 @ 0000012603cbcb80] using cpu capabilities: MMX2 SSE2Fast SSSE3 SSE4.2 AVX FMA3 BMI2 AVX2\n[libx264 @ 0000012603cbcb80] profile High, level 5.1, 4:2:0, 8-bit\n[libx264 @ 0000012603cbcb80] 264 - core 165 r3222 b35605a - H.264/MPEG-4 AVC codec - Copyleft 2003-2025 - http://www.videolan.org/x264.html - options: cabac=1 ref=5 deblock=1:0:0 analyse=0x3:0x113 me=hex subme=8 psy=1 psy_rd=1.00:0.00 mixed_ref=1 me_range=16 chroma_me=1 trellis=2 8x8dct=1 cqm=0 deadzone=21,11 fast_pskip=1 chroma_qp_offset=-2 threads=18 lookahead_threads=3 sliced_threads=0 nr=0 decimate=1 interlaced=0 bluray_compat=0 constrained_intra=0 bframes=3 b_pyramid=2 b_adapt=1 b_bias=0 direct=3 weightb=1 open_gop=0 weightp=2 keyint=250 keyint_min=25 scenecut=40 intra_refresh=0 rc_lookahead=50 rc=cbr mbtree=1 bitrate=2500 ratetol=1.0 qcomp=0.60 qpmin=0 qpmax=69 qpstep=4 vbv_maxrate=2500 vbv_bufsize=2500 nal_hrd=none filler=0 ip_ratio=1.40 aq=1:1.00\nOutput #0, mp4, to 'C:\\Users\\Peter\\Desktop\\stuff\\MIUN\\quantitative_research\\video_compression\\compressed_videos\\UVG\\h264\\2.5\\ShakeNDry_1920x1080_120fps_420_8bit_YUV_h264.mp4':\n  Metadata:\n    encoder         : Lavf62.3.100\n  Stream #0:0: Video: h264 (avc1 / 0x31637661), yuv420p(tv, progressive), 1920x1080, q=2-31, 2500 kb/s, 120 fps, 15360 tbn\n    Metadata:\n      encoder         : Lavc62.11.100 libx264\n    Side data:\n      cpb: bitrate max/min/avg: 2500000/0/2500000 buffer size: 2500000 vbv_delay: N/A\nframe=    0 fps=0.0 q=0.0 size=       0KiB time=N/A bitrate=N/A speed=N/A elapsed=0:00:00.50    \nframe=    0 fps=0.0 q=0.0 size=       0KiB time=N/A bitrate=N/A speed=N/A elapsed=0:00:01.02    \nframe=   32 fps= 21 q=44.0 size=       0KiB time=00:00:00.25 bitrate=   1.5kbits/s speed=0.161x elapsed=0:00:01.54    \nframe=   60 fps= 29 q=44.0 size=       0KiB time=00:00:00.48 bitrate=   0.8kbits/s speed=0.232x elapsed=0:00:02.08    \nframe=   92 fps= 35 q=43.0 size=       0KiB time=00:00:00.75 bitrate=   0.5kbits/s speed=0.289x elapsed=0:00:02.59    \nframe=  124 fps= 40 q=42.0 size=       0KiB time=00:00:01.01 bitrate=   0.4kbits/s speed=0.326x elapsed=0:00:03.12    \nframe=  156 fps= 42 q=41.0 size=       0KiB time=00:00:01.28 bitrate=   0.3kbits/s speed=0.349x elapsed=0:00:03.67    \nframe=  188 fps= 45 q=41.0 size=     256KiB time=00:00:01.55 bitrate=1353.2kbits/s speed=0.368x elapsed=0:00:04.21    \nframe=  220 fps= 46 q=41.0 size=     256KiB time=00:00:01.78 bitrate=1176.2kbits/s speed=0.376x elapsed=0:00:04.74    \nframe=  233 fps= 44 q=41.0 size=     256KiB time=00:00:01.92 bitrate=1089.6kbits/s speed=0.365x elapsed=0:00:05.27    \nframe=  285 fps= 49 q=-1.0 size=     512KiB time=00:00:02.33 bitrate=1797.7kbits/s speed=0.401x elapsed=0:00:05.82    \n[mp4 @ 0000012603cb9bc0] Starting second pass: moving the moov atom to the beginning of the file\n[out#0/mp4 @ 0000012603cb9ac0] video:592KiB audio:0KiB subtitle:0KiB other streams:0KiB global headers:0KiB muxing overhead: 0.735471%\nframe=  300 fps= 50 q=-1.0 Lsize=     596KiB time=00:00:02.48 bitrate=1965.7kbits/s speed=0.417x elapsed=0:00:05.95    \n[libx264 @ 0000012603cbcb80] frame I:2     Avg QP:39.14  size: 41912\n[libx264 @ 0000012603cbcb80] frame P:76    Avg QP:38.67  size:  4087\n[libx264 @ 0000012603cbcb80] frame B:222   Avg QP:43.38  size:   948\n[libx264 @ 0000012603cbcb80] consecutive B-frames:  1.3%  0.0%  0.0% 98.7%\n[libx264 @ 0000012603cbcb80] mb I  I16..4: 34.7% 62.3%  3.0%\n[libx264 @ 0000012603cbcb80] mb P  I16..4:  0.5%  0.8%  0.0%  P16..4: 12.5%  0.7%  5.7%  0.0%  0.0%    skip:79.7%\n[libx264 @ 0000012603cbcb80] mb B  I16..4:  0.0%  0.0%  0.0%  B16..8: 10.4%  0.2%  0.0%  direct: 0.0%  skip:89.3%  L0:24.2% L1:75.6% BI: 0.2%\n[libx264 @ 0000012603cbcb80] 8x8 transform intra:62.6% inter:91.2%\n[libx264 @ 0000012603cbcb80] direct mvs  spatial:95.5% temporal:4.5%\n[libx264 @ 0000012603cbcb80] coded y,uvDC,uvAC intra: 39.2% 39.9% 7.1% inter: 0.9% 0.8% 0.0%\n[libx264 @ 0000012603cbcb80] i16 v,h,dc,p: 29% 27%  6% 38%\n[libx264 @ 0000012603cbcb80] i8 v,h,dc,ddl,ddr,vr,hd,vl,hu:  4%  5%  8%  9% 18% 12% 21%  9% 14%\n[libx264 @ 0000012603cbcb80] i4 v,h,dc,ddl,ddr,vr,hd,vl,hu:  2%  5%  0%  9% 17% 12% 25%  9% 21%\n[libx264 @ 0000012603cbcb80] i8c dc,h,v,p: 57% 23%  9% 11%\n[libx264 @ 0000012603cbcb80] Weighted P-Frames: Y:0.0% UV:0.0%\n[libx264 @ 0000012603cbcb80] ref P L0: 66.8% 14.8% 10.1%  3.7%  4.6%\n[libx264 @ 0000012603cbcb80] ref B L0: 83.8% 10.8%  4.0%  1.4%\n[libx264 @ 0000012603cbcb80] ref B L1: 94.3%  5.7%\n[libx264 @ 0000012603cbcb80] kb/s:1935.91\n",
  "seconds": 6.149660348892212,
  "probe_out": {}
}